<?xml version="1.0" encoding="UTF-8" standalone="no" ?>
<!DOCTYPE svg PUBLIC "-//W3C//DTD SVG 1.1//EN" "http://www.w3.org/Graphics/SVG/1.1/DTD/svg11.dtd">
<svg xmlns="http://www.w3.org/2000/svg" xmlns:xlink="http://www.w3.org/1999/xlink" version="1.1" width="512" height="512" viewBox="0 0 512 512" xml:space="preserve">
<desc>Created with Fabric.js 4.6.0</desc>
<defs>
</defs>
<g transform="matrix(0.98 0 0 0.98 256 256)" id="DdjrnFmBmtKEuLAk555IM" clip-path="url(#CLIPPATH_1)"  >
<clipPath id="CLIPPATH_1" >
	<rect transform="matrix(1 0 0 1 0 0)" id="_clipPath_bJDNEu5L22VvlZLRzEK26FJONzb1TPh9" x="-256" y="-256" rx="0" ry="0" width="512" height="512" />
</clipPath>
<path style="stroke: none; stroke-width: 1; stroke-dasharray: none; stroke-linecap: butt; stroke-dashoffset: 0; stroke-linejoin: miter; stroke-miterlimit: 4; fill: rgb(255,255,255); fill-rule: nonzero; opacity: 1;" vector-effect="non-scaling-stroke"  transform=" translate(-256, -256)" d="M 501.301 132.328 C 495.413 110.156 478.063 92.694 456.035 86.768 C 416.107 76 256 76 256 76 C 256 76 95.894 76 55.965 86.768 C 33.937 92.695 16.587 110.156 10.699 132.328 C 0 172.516 0 256.364 0 256.364 C 0 256.364 0 340.212 10.699 380.4 C 16.587 402.571 33.937 419.306 55.965 425.232 C 95.894 436 256 436 256 436 C 256 436 416.106 436 456.035 425.232 C 478.063 419.306 495.413 402.571 501.301 380.4 C 512 340.212 512 256.364 512 256.364 C 512 256.364 512 172.516 501.301 132.328 L 501.301 132.328 Z M 203.636 332.491 L 203.636 180.236 L 337.454 256.366 L 203.636 332.491 L 203.636 332.491 Z" stroke-linecap="round" />
</g>
</svg>